<svg width="278" height="194" viewBox="0 0 278 194" fill="none"
  xmlns="http://www.w3.org/2000/svg">
  <g clip-path="url(#clip0_301_15)">
    <path d="M181.03 0H96.97C89.8069 0 84 5.80687 84 12.97V97.03C84 104.193 89.8069 110 96.97 110H181.03C188.193 110 194 104.193 194 97.03V12.97C194 5.80687 188.193 0 181.03 0Z" fill="url(#paint0_linear_301_15)"/>
    <path d="M172.58 40.88C170.46 57.25 155.75 71.11 139 71.26C121.55 72 105.82 58.38 102.59 41.33C102.16 39.28 103.48 37.26 105.54 36.84C107.7 36.39 109.82 37.94 110.05 40.13C110.43 43.62 111.41 47.07 112.97 50.28C123.93 72.57 154.74 72.79 166.92 51.31C168.8 48 170.11 44.35 170.78 40.58C170.98 39.43 172.74 39.69 172.58 40.87V40.88Z" fill="white"/>
  </g>
  <path d="M26.55 161.46C26.55 163.38 26.33 165.2 25.89 166.92C25.45 168.64 24.75 170.16 23.8 171.49C22.85 172.81 21.61 173.86 20.08 174.62C18.55 175.38 16.69 175.76 14.5 175.76C12.65 175.76 11 175.46 9.55 174.87C8.1 174.27 6.87 173.36 5.86 172.14C4.85 170.92 4.08 169.36 3.56 167.49C3.04 165.61 2.78 163.41 2.78 160.87V141.93H0V161.39C0 163.51 0.210005 165.46 0.630005 167.23C1.05 169.01 1.67 170.59 2.48 171.98C3.3 173.37 4.29 174.55 5.48 175.51C6.66 176.47 8.01 177.2 9.52 177.71C11.03 178.22 12.69 178.47 14.5 178.47C17.13 178.47 19.55 177.9 21.77 176.75C23.8 175.7 25.45 174.08 26.75 171.9V177.68H29.33V141.93H26.55V161.46V161.46Z" fill="#33393A"/>
  <path d="M61.36 159.56C59.54 158.62 57.05 157.76 53.9 156.96C51.1 156.25 48.96 155.63 47.49 155.07C46.02 154.52 45.02 153.94 44.48 153.33C43.94 152.72 43.67 151.98 43.67 151.1C43.67 149.58 44.39 148.36 45.84 147.46C47.29 146.56 49.17 146.14 51.48 146.2C53.91 146.27 55.9 146.86 57.47 147.97C59.04 149.08 59.96 150.59 60.25 152.49L66.27 151.4C66.03 149.3 65.25 147.47 63.94 145.89C62.63 144.31 60.9 143.09 58.76 142.23C56.62 141.37 54.19 140.94 51.48 140.94C48.77 140.94 46.34 141.38 44.28 142.25C42.22 143.12 40.61 144.34 39.46 145.91C38.31 147.48 37.74 149.31 37.74 151.41C37.74 153.13 38.13 154.59 38.9 155.78C39.67 156.97 40.96 158.01 42.77 158.91C44.58 159.81 47.06 160.67 50.22 161.51C53.13 162.3 55.31 162.98 56.76 163.53C58.21 164.08 59.16 164.67 59.62 165.3C60.08 165.93 60.31 166.74 60.31 167.73C60.31 169.47 59.61 170.85 58.21 171.87C56.81 172.89 54.89 173.39 52.47 173.39C49.89 173.39 47.72 172.82 45.98 171.69C44.24 170.55 43.12 169.01 42.64 167.07L36.61 168.03C37.23 171.38 38.9 173.99 41.63 175.86C44.36 177.72 47.85 178.66 52.11 178.66C56.37 178.66 60.07 177.67 62.6 175.7C65.14 173.73 66.41 171.02 66.41 167.57C66.41 165.72 66.02 164.15 65.25 162.89C64.48 161.62 63.18 160.52 61.36 159.58V159.56Z" fill="#33393A"/>
  <path d="M98.55 160.77C98.55 162.82 98.31 164.62 97.84 166.17C97.37 167.72 96.7 168.99 95.84 169.99C94.98 170.99 93.95 171.75 92.75 172.26C91.55 172.77 90.2099 173.02 88.7299 173.02C86.8499 173.02 85.29 172.66 84.05 171.93C82.8 171.2 81.81 170.21 81.07 168.95C80.33 167.69 79.81 166.28 79.5 164.71C79.19 163.14 79.0399 161.52 79.0399 159.84V141.93H73.08V161.69C73.08 163.04 73.21 164.48 73.46 166.03C73.71 167.57 74.15 169.09 74.77 170.57C75.39 172.05 76.24 173.4 77.32 174.61C78.4 175.82 79.76 176.8 81.39 177.52C83.02 178.25 85 178.61 87.32 178.61C90.39 178.61 93.05 177.94 95.31 176.61C96.86 175.69 98.1599 174.48 99.2299 173.02V177.69H104.49V141.93H98.57V160.77H98.55Z" fill="#33393A"/>
  <path d="M138.75 143.41C136.36 141.77 133.5 140.94 130.19 140.94C126.88 140.94 124.01 141.76 121.7 143.41C120.67 144.14 119.77 145.01 118.97 145.98V141.93H113.71V193.57H119.64V174.33C120.27 175 120.94 175.63 121.69 176.18C123.98 177.85 126.81 178.68 130.16 178.68C133.51 178.68 136.36 177.85 138.75 176.2C141.14 174.54 142.98 172.29 144.26 169.43C145.54 166.57 146.18 163.36 146.18 159.78C146.18 156.2 145.54 152.99 144.26 150.15C142.98 147.31 141.14 145.06 138.75 143.41V143.41ZM138.77 166.65C138 168.69 136.83 170.31 135.28 171.5C133.73 172.69 131.78 173.29 129.44 173.29C127.1 173.29 125.06 172.71 123.51 171.55C121.97 170.39 120.82 168.79 120.08 166.75C119.34 164.71 118.97 162.39 118.97 159.78C118.97 157.17 119.35 154.83 120.1 152.8C120.85 150.77 121.99 149.19 123.51 148.05C125.03 146.91 126.95 146.35 129.27 146.35C131.59 146.35 133.69 146.95 135.26 148.14C136.83 149.33 138 150.94 138.77 152.97C139.54 155 139.93 157.27 139.93 159.79C139.93 162.31 139.54 164.62 138.77 166.66V166.65Z" fill="#33393A"/>
  <path d="M178.48 143.41C176.09 141.77 173.23 140.94 169.92 140.94C166.61 140.94 163.73 141.76 161.43 143.41C160.4 144.14 159.5 145.01 158.7 145.98V141.93H153.44V193.57H159.37V174.32C160 174.99 160.67 175.62 161.42 176.17C163.71 177.84 166.54 178.67 169.89 178.67C173.24 178.67 176.09 177.84 178.48 176.19C180.87 174.53 182.71 172.28 183.99 169.42C185.27 166.56 185.91 163.35 185.91 159.77C185.91 156.19 185.27 152.98 183.99 150.14C182.71 147.29 180.87 145.05 178.48 143.4V143.41ZM178.5 166.65C177.73 168.69 176.56 170.31 175.01 171.5C173.46 172.69 171.51 173.29 169.17 173.29C166.83 173.29 164.79 172.71 163.24 171.55C161.7 170.39 160.55 168.79 159.81 166.75C159.07 164.71 158.7 162.39 158.7 159.78C158.7 157.17 159.08 154.83 159.83 152.8C160.58 150.77 161.72 149.19 163.24 148.05C164.76 146.91 166.68 146.35 169 146.35C171.32 146.35 173.42 146.95 174.99 148.14C176.56 149.33 177.73 150.94 178.5 152.97C179.27 155 179.66 157.27 179.66 159.79C179.66 162.31 179.27 164.62 178.5 166.66V166.65Z" fill="#33393A"/>
  <path d="M217.65 143.36C215.07 141.75 211.99 140.94 208.41 140.94C204.83 140.94 201.89 141.73 199.31 143.31C196.73 144.89 194.73 147.1 193.32 149.93C191.91 152.77 191.2 156.05 191.2 159.78C191.2 163.51 191.9 166.76 193.29 169.6C194.68 172.44 196.66 174.66 199.23 176.27C201.8 177.88 204.86 178.69 208.42 178.69C211.98 178.69 215.04 177.89 217.62 176.29C220.2 174.69 222.19 172.47 223.58 169.64C224.97 166.8 225.66 163.52 225.66 159.79C225.66 156.06 224.97 152.85 223.59 150.02C222.21 147.2 220.23 144.98 217.65 143.37V143.36ZM216.67 169.38C214.85 171.85 212.1 173.09 208.41 173.09C204.72 173.09 202.09 171.88 200.23 169.45C198.38 167.02 197.45 163.8 197.45 159.78C197.45 157.18 197.85 154.88 198.64 152.89C199.43 150.9 200.64 149.35 202.25 148.22C203.86 147.09 205.91 146.53 208.41 146.53C212.07 146.53 214.82 147.73 216.65 150.14C218.48 152.55 219.4 155.76 219.4 159.77C219.4 163.78 218.49 166.9 216.67 169.37V169.38Z" fill="#33393A"/>
  <path d="M247.98 141.72C246.77 141.8 245.57 142.03 244.4 142.42C243.23 142.81 242.18 143.37 241.26 144.12C240.42 144.72 239.67 145.48 238.99 146.4C238.7 146.79 238.45 147.21 238.21 147.64V141.93H232.95V177.68H238.88V159.74C238.88 158.33 239 156.94 239.24 155.59C239.48 154.24 239.92 152.97 240.55 151.82C241.18 150.66 242.07 149.66 243.22 148.82C244.48 147.92 245.85 147.39 247.32 147.23C248.79 147.07 250.16 147.15 251.39 147.46V141.93C250.33 141.71 249.19 141.64 247.98 141.72V141.72Z" fill="#33393A"/>
  <path d="M277.64 146.8V141.93H266.85V132H260.96V141.93H253.71V146.8H260.96V164.18C260.96 166.01 260.99 167.65 261.04 169.1C261.09 170.55 261.48 171.98 262.18 173.39C263 175.02 264.22 176.22 265.84 176.98C267.46 177.74 269.3 178.16 271.37 178.24C273.44 178.32 275.52 178.14 277.64 177.69V172.63C275.19 173.01 273.1 173.07 271.37 172.83C269.64 172.59 268.37 171.76 267.58 170.35C267.16 169.6 266.93 168.71 266.9 167.67C266.87 166.63 266.85 165.39 266.85 163.93V146.82H277.64V146.8Z" fill="#33393A"/>
  <defs>
    <linearGradient id="paint0_linear_301_15" x1="111.55" y1="21.55" x2="183.83" y2="109.64" gradientUnits="userSpaceOnUse">
      <stop stop-color="#54CFD9"/>
      <stop offset="0.44" stop-color="#6A8DEA"/>
      <stop offset="0.82" stop-color="#7A5CF7"/>
      <stop offset="1" stop-color="#814AFD"/>
    </linearGradient>
    <clipPath id="clip0_301_15">
      <rect width="110" height="110" fill="white" transform="translate(84)"/>
    </clipPath>
  </defs>
</svg>
