<svg width="407" height="110" viewBox="0 0 407 110" fill="none"
  xmlns="http://www.w3.org/2000/svg">
  <g clip-path="url(#clip0_2_6)">
    <path d="M155.69 58.8C155.69 60.72 155.47 62.54 155.03 64.26C154.59 65.98 153.89 67.5 152.94 68.83C151.99 70.15 150.75 71.2 149.22 71.96C147.69 72.72 145.83 73.1 143.64 73.1C141.79 73.1 140.14 72.8 138.69 72.21C137.24 71.61 136.01 70.7 135 69.48C133.99 68.26 133.22 66.7 132.7 64.83C132.18 62.95 131.92 60.75 131.92 58.21V39.27H129.14V58.73C129.14 60.85 129.35 62.8 129.77 64.57C130.19 66.35 130.81 67.93 131.62 69.32C132.44 70.71 133.43 71.89 134.62 72.85C135.8 73.81 137.15 74.54 138.66 75.05C140.17 75.56 141.83 75.81 143.64 75.81C146.27 75.81 148.69 75.24 150.91 74.09C152.94 73.04 154.59 71.42 155.89 69.24V75.02H158.47V39.27H155.69V58.8Z" fill="#33393A"/>
    <path d="M190.5 56.9C188.68 55.96 186.19 55.1 183.04 54.3C180.24 53.59 178.1 52.97 176.63 52.41C175.16 51.86 174.16 51.28 173.62 50.67C173.08 50.06 172.81 49.32 172.81 48.44C172.81 46.92 173.53 45.7 174.98 44.8C176.43 43.9 178.31 43.48 180.62 43.54C183.05 43.61 185.04 44.2 186.61 45.31C188.18 46.42 189.1 47.93 189.39 49.83L195.41 48.74C195.17 46.64 194.39 44.81 193.08 43.23C191.77 41.65 190.04 40.43 187.9 39.57C185.76 38.71 183.33 38.28 180.62 38.28C177.91 38.28 175.48 38.72 173.42 39.59C171.36 40.46 169.75 41.68 168.6 43.25C167.45 44.82 166.88 46.65 166.88 48.75C166.88 50.47 167.27 51.93 168.04 53.12C168.81 54.31 170.1 55.35 171.91 56.25C173.72 57.15 176.2 58.01 179.36 58.85C182.27 59.64 184.45 60.32 185.9 60.87C187.35 61.42 188.3 62.01 188.76 62.64C189.22 63.27 189.45 64.08 189.45 65.07C189.45 66.81 188.75 68.19 187.35 69.21C185.95 70.23 184.03 70.73 181.61 70.73C179.03 70.73 176.86 70.16 175.12 69.03C173.38 67.89 172.26 66.35 171.78 64.41L165.75 65.37C166.37 68.72 168.04 71.33 170.77 73.2C173.5 75.06 176.99 76 181.25 76C185.51 76 189.21 75.01 191.74 73.04C194.28 71.07 195.55 68.36 195.55 64.91C195.55 63.06 195.16 61.49 194.39 60.23C193.62 58.96 192.32 57.86 190.5 56.92V56.9Z" fill="#33393A"/>
    <path d="M227.69 58.11C227.69 60.16 227.45 61.96 226.98 63.51C226.51 65.06 225.84 66.33 224.98 67.33C224.12 68.33 223.09 69.09 221.89 69.6C220.69 70.11 219.35 70.36 217.87 70.36C215.99 70.36 214.43 70 213.19 69.27C211.94 68.54 210.95 67.55 210.21 66.29C209.47 65.03 208.95 63.62 208.64 62.05C208.33 60.48 208.18 58.86 208.18 57.18V39.27H202.22V59.03C202.22 60.38 202.35 61.82 202.6 63.37C202.85 64.91 203.29 66.43 203.91 67.91C204.53 69.39 205.38 70.74 206.46 71.95C207.54 73.16 208.9 74.14 210.53 74.86C212.16 75.59 214.14 75.95 216.46 75.95C219.53 75.95 222.19 75.28 224.45 73.95C226 73.03 227.3 71.82 228.37 70.36V75.03H233.63V39.27H227.71V58.11H227.69Z" fill="#33393A"/>
    <path d="M267.89 40.75C265.5 39.11 262.64 38.28 259.33 38.28C256.02 38.28 253.15 39.1 250.84 40.75C249.81 41.48 248.91 42.35 248.11 43.32V39.27H242.85V90.91H248.78V71.67C249.41 72.34 250.08 72.97 250.83 73.52C253.12 75.19 255.95 76.02 259.3 76.02C262.65 76.02 265.5 75.19 267.89 73.54C270.28 71.88 272.12 69.63 273.4 66.77C274.68 63.91 275.32 60.7 275.32 57.12C275.32 53.54 274.68 50.33 273.4 47.49C272.12 44.65 270.28 42.4 267.89 40.75ZM267.91 63.99C267.14 66.03 265.97 67.65 264.42 68.84C262.87 70.03 260.92 70.63 258.58 70.63C256.24 70.63 254.2 70.05 252.65 68.89C251.11 67.73 249.96 66.13 249.22 64.09C248.48 62.05 248.11 59.73 248.11 57.12C248.11 54.51 248.49 52.17 249.24 50.14C249.99 48.11 251.13 46.53 252.65 45.39C254.17 44.25 256.09 43.69 258.41 43.69C260.73 43.69 262.83 44.29 264.4 45.48C265.97 46.67 267.14 48.28 267.91 50.31C268.68 52.34 269.07 54.61 269.07 57.13C269.07 59.65 268.68 61.96 267.91 64V63.99Z" fill="#33393A"/>
    <path d="M307.62 40.75C305.23 39.11 302.37 38.28 299.06 38.28C295.75 38.28 292.87 39.1 290.57 40.75C289.54 41.48 288.64 42.35 287.84 43.32V39.27H282.58V90.91H288.51V71.66C289.14 72.33 289.81 72.96 290.56 73.51C292.85 75.18 295.68 76.01 299.03 76.01C302.38 76.01 305.23 75.18 307.62 73.53C310.01 71.87 311.85 69.62 313.13 66.76C314.41 63.9 315.05 60.69 315.05 57.11C315.05 53.53 314.41 50.32 313.13 47.48C311.85 44.63 310.01 42.39 307.62 40.74V40.75ZM307.64 63.99C306.87 66.03 305.7 67.65 304.15 68.84C302.6 70.03 300.65 70.63 298.31 70.63C295.97 70.63 293.93 70.05 292.38 68.89C290.84 67.73 289.69 66.13 288.95 64.09C288.21 62.05 287.84 59.73 287.84 57.12C287.84 54.51 288.22 52.17 288.97 50.14C289.72 48.11 290.86 46.53 292.38 45.39C293.9 44.25 295.82 43.69 298.14 43.69C300.46 43.69 302.56 44.29 304.13 45.48C305.7 46.67 306.87 48.28 307.64 50.31C308.41 52.34 308.8 54.61 308.8 57.13C308.8 59.65 308.41 61.96 307.64 64V63.99Z" fill="#33393A"/>
    <path d="M346.79 40.7C344.21 39.09 341.13 38.28 337.55 38.28C333.97 38.28 331.03 39.07 328.45 40.65C325.87 42.23 323.87 44.44 322.46 47.27C321.05 50.11 320.34 53.39 320.34 57.12C320.34 60.85 321.04 64.1 322.43 66.94C323.82 69.78 325.8 72 328.37 73.61C330.94 75.22 334 76.03 337.56 76.03C341.12 76.03 344.18 75.23 346.76 73.63C349.34 72.03 351.33 69.81 352.72 66.98C354.11 64.14 354.8 60.86 354.8 57.13C354.8 53.4 354.11 50.19 352.73 47.36C351.35 44.54 349.37 42.32 346.79 40.71V40.7ZM345.81 66.72C343.99 69.19 341.24 70.43 337.55 70.43C333.86 70.43 331.23 69.22 329.37 66.79C327.52 64.36 326.59 61.14 326.59 57.12C326.59 54.52 326.99 52.22 327.78 50.23C328.57 48.24 329.78 46.69 331.39 45.56C333 44.43 335.05 43.87 337.55 43.87C341.21 43.87 343.96 45.07 345.79 47.48C347.62 49.89 348.54 53.1 348.54 57.11C348.54 61.12 347.63 64.24 345.81 66.71V66.72Z" fill="#33393A"/>
    <path d="M377.12 39.06C375.91 39.14 374.71 39.37 373.54 39.76C372.37 40.15 371.32 40.71 370.4 41.46C369.56 42.06 368.81 42.82 368.13 43.74C367.84 44.13 367.59 44.55 367.35 44.98V39.27H362.09V75.02H368.02V57.08C368.02 55.67 368.14 54.28 368.38 52.93C368.62 51.58 369.06 50.31 369.69 49.16C370.32 48 371.21 47 372.36 46.16C373.62 45.26 374.99 44.73 376.46 44.57C377.93 44.41 379.3 44.49 380.53 44.8V39.27C379.47 39.05 378.33 38.98 377.12 39.06Z" fill="#33393A"/>
    <path d="M406.78 44.14V39.27H395.99V29.34H390.1V39.27H382.85V44.14H390.1V61.52C390.1 63.35 390.13 64.99 390.18 66.44C390.23 67.89 390.62 69.32 391.32 70.73C392.14 72.36 393.36 73.56 394.98 74.32C396.6 75.08 398.44 75.5 400.51 75.58C402.58 75.66 404.66 75.48 406.78 75.03V69.97C404.33 70.35 402.24 70.41 400.51 70.17C398.78 69.93 397.51 69.1 396.72 67.69C396.3 66.94 396.07 66.05 396.04 65.01C396.01 63.97 395.99 62.73 395.99 61.27V44.16H406.78V44.14Z" fill="#33393A"/>
    <path d="M97.03 0H12.97C5.80687 0 0 5.80687 0 12.97V97.03C0 104.193 5.80687 110 12.97 110H97.03C104.193 110 110 104.193 110 97.03V12.97C110 5.80687 104.193 0 97.03 0Z" fill="url(#paint0_linear_2_6)"/>
    <path d="M88.58 40.88C86.46 57.25 71.75 71.11 55 71.26C37.55 72 21.82 58.38 18.59 41.33C18.16 39.28 19.48 37.26 21.54 36.84C23.7 36.39 25.82 37.94 26.05 40.13C26.43 43.62 27.41 47.07 28.97 50.28C39.93 72.57 70.74 72.79 82.92 51.31C84.8 48 86.11 44.35 86.78 40.58C86.98 39.43 88.74 39.69 88.58 40.87V40.88Z" fill="white"/>
  </g>
  <defs>
    <linearGradient id="paint0_linear_2_6" x1="27.55" y1="21.55" x2="99.83" y2="109.64" gradientUnits="userSpaceOnUse">
      <stop stop-color="#54CFD9"/>
      <stop offset="0.44" stop-color="#6A8DEA"/>
      <stop offset="0.82" stop-color="#7A5CF7"/>
      <stop offset="1" stop-color="#814AFD"/>
    </linearGradient>
    <clipPath id="clip0_2_6">
      <rect width="406.78" height="110" fill="white"/>
    </clipPath>
  </defs>
</svg>
