<svg width="110" height="110" viewBox="0 0 110 110" fill="none"
  xmlns="http://www.w3.org/2000/svg">
  <g clip-path="url(#clip0_301_3)">
    <path d="M97.03 0H12.97C5.80687 0 0 5.80687 0 12.97V97.03C0 104.193 5.80687 110 12.97 110H97.03C104.193 110 110 104.193 110 97.03V12.97C110 5.80687 104.193 0 97.03 0Z" fill="url(#paint0_linear_301_3)"/>
    <path d="M88.58 40.88C86.46 57.25 71.75 71.11 55 71.26C37.55 72 21.82 58.38 18.59 41.33C18.16 39.28 19.48 37.26 21.54 36.84C23.7 36.39 25.82 37.94 26.05 40.13C26.43 43.62 27.41 47.07 28.97 50.28C39.93 72.57 70.74 72.79 82.92 51.31C84.8 48 86.11 44.35 86.78 40.58C86.98 39.43 88.74 39.69 88.58 40.87V40.88Z" fill="white"/>
  </g>
  <defs>
    <linearGradient id="paint0_linear_301_3" x1="27.55" y1="21.55" x2="99.83" y2="109.64" gradientUnits="userSpaceOnUse">
      <stop stop-color="#54CFD9"/>
      <stop offset="0.44" stop-color="#6A8DEA"/>
      <stop offset="0.82" stop-color="#7A5CF7"/>
      <stop offset="1" stop-color="#814AFD"/>
    </linearGradient>
    <clipPath id="clip0_301_3">
      <rect width="110" height="110" fill="white"/>
    </clipPath>
  </defs>
</svg>
