<svg width="244" height="67" viewBox="0 0 244 67" fill="none" xmlns="http://www.w3.org/2000/svg">
<path d="M151.455 20.8733V8.00941H152.484V14.1213L158.603 8.00941H159.96L153.81 14.1899L160.501 20.8733H159.129L152.492 14.3042V20.8733H151.463H151.455Z" fill="#684DFD"/>
<path d="M164.532 21.14C163.786 21.14 163.168 21.0104 162.681 20.7437C162.193 20.477 161.819 20.1341 161.575 19.6997C161.332 19.2653 161.21 18.8004 161.21 18.2898C161.21 17.7411 161.324 17.2839 161.553 16.9181C161.781 16.5523 162.086 16.2475 162.475 16.0265C162.863 15.8055 163.283 15.6302 163.747 15.5159C164.281 15.3939 164.852 15.2949 165.462 15.211C166.072 15.1272 166.659 15.051 167.215 14.9824C167.771 14.9138 168.228 14.8605 168.579 14.8148L168.206 15.0358C168.228 13.9917 168.038 13.222 167.619 12.7114C167.2 12.2008 166.476 11.9494 165.432 11.9494C164.7 11.9494 164.098 12.117 163.625 12.4447C163.153 12.7724 162.818 13.283 162.627 13.9765L161.575 13.6793C161.797 12.8029 162.239 12.1323 162.909 11.6598C163.58 11.1873 164.433 10.951 165.47 10.951C166.354 10.951 167.101 11.1263 167.71 11.4692C168.32 11.8122 168.739 12.2999 168.975 12.9248C169.074 13.1839 169.143 13.4811 169.181 13.8241C169.219 14.167 169.234 14.5099 169.234 14.8529V20.8656H168.297V18.3279L168.648 18.4194C168.358 19.2881 167.847 19.9588 167.123 20.4313C166.399 20.9037 165.538 21.14 164.54 21.14H164.532ZM164.586 20.195C165.241 20.195 165.813 20.0807 166.308 19.8445C166.803 19.6082 167.2 19.2805 167.512 18.8538C167.825 18.427 168.015 17.924 168.099 17.3525C168.16 17.0324 168.19 16.6818 168.198 16.3084C168.206 15.935 168.206 15.653 168.206 15.4778L168.655 15.7674C168.267 15.8131 167.802 15.8664 167.268 15.9198C166.735 15.9731 166.178 16.0417 165.622 16.1179C165.066 16.1941 164.555 16.2932 164.106 16.4151C163.824 16.4913 163.542 16.6056 163.26 16.7504C162.978 16.8952 162.741 17.101 162.551 17.3525C162.36 17.604 162.269 17.9317 162.269 18.3279C162.269 18.6175 162.345 18.9147 162.49 19.2043C162.635 19.4939 162.879 19.7378 163.222 19.9283C163.565 20.1188 164.022 20.2179 164.593 20.2179L164.586 20.195Z" fill="#684DFD"/>
<path d="M170.659 20.8733V20.5989L177.251 12.2389H171.109V11.233H179.027V11.5378L172.435 19.8673H178.631V20.8733H170.659Z" fill="#684DFD"/>
<path d="M183.241 21.14C182.495 21.14 181.877 21.0104 181.39 20.7437C180.902 20.477 180.528 20.1341 180.285 19.6997C180.041 19.2653 179.919 18.8004 179.919 18.2898C179.919 17.7411 180.033 17.2839 180.262 16.9181C180.49 16.5523 180.795 16.2475 181.184 16.0265C181.572 15.8055 181.992 15.6302 182.456 15.5159C182.99 15.3939 183.561 15.2949 184.171 15.211C184.781 15.1272 185.368 15.051 185.924 14.9824C186.48 14.9138 186.937 14.8605 187.288 14.8148L186.915 15.0358C186.937 13.9917 186.747 13.222 186.328 12.7114C185.909 12.2008 185.185 11.9494 184.141 11.9494C183.409 11.9494 182.807 12.117 182.334 12.4447C181.862 12.7724 181.527 13.283 181.336 13.9765L180.285 13.6793C180.506 12.8029 180.948 12.1323 181.618 11.6598C182.289 11.1873 183.142 10.951 184.179 10.951C185.063 10.951 185.81 11.1263 186.419 11.4692C187.029 11.8122 187.448 12.2999 187.684 12.9248C187.783 13.1839 187.852 13.4811 187.89 13.8241C187.928 14.167 187.943 14.5099 187.943 14.8529V20.8656H187.006V18.3279L187.357 18.4194C187.067 19.2881 186.556 19.9588 185.832 20.4313C185.108 20.9037 184.247 21.14 183.249 21.14H183.241ZM183.295 20.195C183.95 20.195 184.522 20.0807 185.017 19.8445C185.512 19.6082 185.909 19.2805 186.221 18.8538C186.534 18.427 186.724 17.924 186.808 17.3525C186.869 17.0324 186.899 16.6818 186.907 16.3084C186.915 15.935 186.915 15.653 186.915 15.4778L187.364 15.7674C186.976 15.8131 186.511 15.8664 185.977 15.9198C185.444 15.9731 184.887 16.0417 184.331 16.1179C183.775 16.1941 183.264 16.2932 182.815 16.4151C182.533 16.4913 182.251 16.6056 181.969 16.7504C181.687 16.8952 181.45 17.101 181.26 17.3525C181.069 17.604 180.978 17.9317 180.978 18.3279C180.978 18.6175 181.054 18.9147 181.199 19.2043C181.344 19.4939 181.588 19.7378 181.931 19.9283C182.274 20.1188 182.731 20.2179 183.302 20.2179L183.295 20.195Z" fill="#684DFD"/>
<path d="M190.26 20.8733V8.00943H191.296V15.8664L195.861 11.2254H197.302L192.523 16.0493L197.98 20.8733H196.379L191.296 16.2322V20.8733H190.26Z" fill="#684DFD"/>
<path d="M198.871 20.8733V8.00943H199.809V15.4397H199.908V20.8657H198.871V20.8733ZM205.936 20.8733V15.8512C205.936 15.2415 205.875 14.7005 205.753 14.228C205.631 13.7555 205.448 13.344 205.197 13.0163C204.945 12.6886 204.64 12.4295 204.267 12.2542C203.893 12.0789 203.459 11.9951 202.948 11.9951C202.438 11.9951 201.973 12.0865 201.584 12.2694C201.196 12.4523 200.883 12.7038 200.639 13.0315C200.395 13.3592 200.205 13.7479 200.083 14.1975C199.961 14.6471 199.9 15.1348 199.9 15.6683L199.085 15.5692C199.085 14.5252 199.26 13.6717 199.618 12.9934C199.976 12.3152 200.449 11.8198 201.051 11.4921C201.653 11.1644 202.331 11.0044 203.078 11.0044C203.611 11.0044 204.084 11.0806 204.503 11.233C204.922 11.3854 205.288 11.6064 205.6 11.8884C205.913 12.1704 206.164 12.5057 206.37 12.8867C206.576 13.2678 206.721 13.6945 206.82 14.1518C206.919 14.609 206.965 15.0891 206.965 15.5921V20.8733H205.928H205.936Z" fill="#684DFD"/>
<path d="M212.856 21.1248C211.743 21.1248 210.821 20.8885 210.097 20.416C209.373 19.9435 208.923 19.2881 208.756 18.4499L209.807 18.2746C209.96 18.8461 210.31 19.3034 210.859 19.6387C211.408 19.974 212.094 20.1493 212.894 20.1493C213.694 20.1493 214.326 19.9816 214.799 19.6387C215.271 19.2958 215.508 18.8385 215.508 18.2441C215.508 17.924 215.431 17.6573 215.287 17.4515C215.142 17.2458 214.852 17.0553 214.425 16.8876C213.999 16.72 213.359 16.5142 212.513 16.2779C211.621 16.0417 210.92 15.8055 210.417 15.5616C209.914 15.3177 209.563 15.051 209.358 14.7462C209.152 14.4413 209.053 14.0679 209.053 13.6335C209.053 13.1001 209.205 12.6352 209.51 12.2389C209.815 11.8427 210.242 11.5226 210.783 11.294C211.324 11.0653 211.956 10.951 212.673 10.951C213.389 10.951 214.029 11.0653 214.601 11.3016C215.172 11.5378 215.637 11.8655 215.988 12.2847C216.338 12.7038 216.544 13.1915 216.597 13.7479L215.546 13.946C215.447 13.3287 215.134 12.8334 214.608 12.4752C214.083 12.117 213.427 11.9341 212.642 11.9265C211.895 11.9113 211.293 12.0637 210.821 12.3685C210.348 12.6733 210.112 13.0772 210.112 13.5802C210.112 13.8698 210.196 14.106 210.356 14.3118C210.516 14.5176 210.813 14.6928 211.225 14.8605C211.636 15.0281 212.231 15.2034 212.993 15.3939C213.922 15.6302 214.646 15.874 215.165 16.1255C215.683 16.377 216.056 16.6666 216.27 17.0019C216.483 17.3372 216.59 17.7564 216.59 18.2441C216.59 19.1357 216.254 19.8368 215.591 20.3474C214.928 20.858 214.014 21.1095 212.856 21.1095V21.1248Z" fill="#684DFD"/>
<path d="M217.497 12.1627V11.2254H223.685V12.1627H217.497ZM223.685 20.8733C223.174 20.9876 222.663 21.0333 222.168 21.0028C221.673 20.9723 221.223 20.8656 220.834 20.6599C220.446 20.4541 220.149 20.1493 219.958 19.7378C219.798 19.3948 219.707 19.0595 219.691 18.709C219.676 18.3584 219.661 17.9698 219.661 17.5201V8.55049H220.697V17.5049C220.697 17.9088 220.697 18.2441 220.713 18.5108C220.728 18.7776 220.781 19.0214 220.895 19.2424C221.109 19.6539 221.452 19.9054 221.917 19.9893C222.381 20.0731 222.976 20.0655 223.692 19.9512V20.8809L223.685 20.8733Z" fill="#684DFD"/>
<path d="M228.318 21.14C227.571 21.14 226.954 21.0104 226.466 20.7437C225.978 20.477 225.605 20.1341 225.361 19.6997C225.117 19.2653 224.995 18.8004 224.995 18.2898C224.995 17.7411 225.11 17.2839 225.338 16.9181C225.567 16.5523 225.872 16.2475 226.26 16.0265C226.649 15.8055 227.068 15.6302 227.533 15.5159C228.067 15.3939 228.638 15.2949 229.248 15.211C229.857 15.1272 230.444 15.051 231.001 14.9824C231.557 14.9138 232.014 14.8605 232.365 14.8148L231.991 15.0358C232.014 13.9917 231.824 13.222 231.404 12.7114C230.985 12.2008 230.261 11.9494 229.217 11.9494C228.486 11.9494 227.884 12.117 227.411 12.4447C226.939 12.7724 226.603 13.283 226.413 13.9765L225.361 13.6793C225.582 12.8029 226.024 12.1323 226.695 11.6598C227.365 11.1873 228.219 10.951 229.255 10.951C230.139 10.951 230.886 11.1263 231.496 11.4692C232.106 11.8122 232.525 12.2999 232.761 12.9248C232.86 13.1839 232.929 13.4811 232.967 13.8241C233.005 14.167 233.02 14.5099 233.02 14.8529V20.8656H232.083V18.3279L232.433 18.4194C232.144 19.2881 231.633 19.9588 230.909 20.4313C230.185 20.9037 229.324 21.14 228.326 21.14H228.318ZM228.371 20.195C229.027 20.195 229.598 20.0807 230.094 19.8445C230.589 19.6082 230.985 19.2805 231.298 18.8538C231.61 18.427 231.801 17.924 231.885 17.3525C231.946 17.0324 231.976 16.6818 231.984 16.3084C231.991 15.935 231.991 15.653 231.991 15.4778L232.441 15.7674C232.052 15.8131 231.587 15.8664 231.054 15.9198C230.52 15.9731 229.964 16.0417 229.408 16.1179C228.851 16.1941 228.341 16.2932 227.891 16.4151C227.609 16.4913 227.327 16.6056 227.045 16.7504C226.763 16.8952 226.527 17.101 226.337 17.3525C226.146 17.604 226.055 17.9317 226.055 18.3279C226.055 18.6175 226.131 18.9147 226.276 19.2043C226.42 19.4939 226.664 19.7378 227.007 19.9283C227.35 20.1188 227.807 20.2179 228.379 20.2179L228.371 20.195Z" fill="#684DFD"/>
<path d="M235.337 20.8733V11.2254H236.274V13.3973H236.373V20.8733H235.337ZM242.401 20.8733V15.8512C242.401 15.2415 242.34 14.7004 242.218 14.228C242.097 13.7555 241.914 13.344 241.662 13.0163C241.411 12.6886 241.106 12.4295 240.732 12.2542C240.359 12.0789 239.925 11.9951 239.414 11.9951C238.903 11.9951 238.439 12.0865 238.05 12.2694C237.661 12.4523 237.349 12.7038 237.105 13.0315C236.861 13.3592 236.671 13.7479 236.549 14.1975C236.427 14.6471 236.366 15.1348 236.366 15.6683L235.55 15.5692C235.55 14.5252 235.726 13.6716 236.084 12.9934C236.442 12.3152 236.914 11.8198 237.516 11.4921C238.118 11.1644 238.797 11.0044 239.544 11.0044C240.077 11.0044 240.55 11.0806 240.969 11.233C241.388 11.3854 241.754 11.6064 242.066 11.8884C242.378 12.1704 242.63 12.5057 242.836 12.8867C243.042 13.2677 243.186 13.6945 243.285 14.1518C243.384 14.609 243.43 15.0891 243.43 15.5921V20.8733H242.394H242.401Z" fill="#684DFD"/>
<path d="M83.9504 56.9423C82.853 56.9423 81.8547 56.7899 80.9402 56.4851C80.0257 56.1803 79.2103 55.7383 78.5016 55.1515C77.7852 54.5723 77.1832 53.8636 76.6878 53.0253C76.1925 52.187 75.819 51.2268 75.5676 50.1522C75.3161 49.0777 75.1865 47.9041 75.1865 46.6238V34.865H76.8631V46.3038C76.8631 47.8355 77.0231 49.1692 77.3356 50.3047C77.648 51.4401 78.1129 52.3775 78.7226 53.1167C79.3322 53.8559 80.0791 54.4046 80.9554 54.7704C81.8318 55.1362 82.8225 55.3115 83.9428 55.3115C85.2612 55.3115 86.389 55.0829 87.3112 54.618C88.2333 54.1531 88.9877 53.5282 89.5593 52.7281C90.1308 51.9279 90.55 51.0058 90.8167 49.9693C91.0834 48.9329 91.213 47.8279 91.213 46.6696L92.7752 46.6314C92.7752 49.1006 92.3713 51.0896 91.5559 52.5985C90.7405 54.115 89.666 55.2124 88.3247 55.9059C86.9835 56.5994 85.5203 56.9423 83.9352 56.9423H83.9504ZM91.3502 56.4622V52.0651H91.2282V34.865H92.9048V56.4622H91.3425H91.3502Z" fill="#33393A"/>
<path d="M106.668 57.049C104.092 57.049 101.981 56.4851 100.335 55.3572C98.689 54.2293 97.6754 52.6518 97.302 50.6247L100.945 50.0455C101.234 51.2191 101.913 52.1489 102.964 52.8347C104.016 53.5206 105.327 53.8635 106.881 53.8635C108.344 53.8635 109.503 53.5587 110.349 52.9414C111.195 52.3318 111.621 51.4935 111.621 50.4418C111.621 49.8398 111.484 49.3521 111.202 48.971C110.92 48.59 110.349 48.2318 109.472 47.9041C108.596 47.5764 107.285 47.1649 105.525 46.6848C103.62 46.1742 102.118 45.656 101.029 45.1149C99.9388 44.5738 99.1539 43.9413 98.689 43.225C98.2241 42.5086 97.9879 41.6246 97.9879 40.5882C97.9879 39.3231 98.3384 38.2181 99.0319 37.2655C99.7254 36.3205 100.693 35.5813 101.943 35.0555C103.185 34.5297 104.641 34.2629 106.295 34.2629C107.948 34.2629 109.404 34.522 110.692 35.0403C111.987 35.5585 113.031 36.2977 113.824 37.2503C114.616 38.2029 115.089 39.3155 115.234 40.5806L111.591 41.2436C111.416 40.1004 110.859 39.186 109.914 38.5153C108.969 37.8447 107.758 37.4865 106.295 37.4484C104.892 37.4103 103.757 37.6618 102.888 38.2105C102.012 38.7592 101.577 39.4908 101.577 40.4129C101.577 40.9463 101.737 41.396 102.065 41.7618C102.393 42.1276 102.995 42.4781 103.886 42.8134C104.778 43.1487 106.066 43.5298 107.758 43.9565C109.663 44.4367 111.164 44.9625 112.269 45.5264C113.374 46.0904 114.152 46.761 114.616 47.5231C115.081 48.2851 115.317 49.2301 115.317 50.3504C115.317 52.4308 114.548 54.0693 113.016 55.2581C111.484 56.4546 109.366 57.049 106.676 57.049H106.668Z" fill="#33393A"/>
<path d="M127.922 57.0262C126.52 57.0262 125.331 56.8052 124.34 56.3631C123.357 55.9211 122.534 55.3343 121.879 54.6028C121.224 53.8712 120.713 53.0557 120.34 52.1641C119.966 51.2725 119.699 50.358 119.547 49.4206C119.395 48.4909 119.318 47.6145 119.318 46.7991V34.8574H122.915V45.6788C122.915 46.6924 123.007 47.6755 123.197 48.6205C123.38 49.5654 123.7 50.419 124.15 51.181C124.6 51.9431 125.194 52.5375 125.948 52.9795C126.703 53.4215 127.648 53.6425 128.776 53.6425C129.667 53.6425 130.475 53.4901 131.207 53.1853C131.931 52.8805 132.556 52.4232 133.074 51.8136C133.592 51.2039 133.996 50.4342 134.286 49.5045C134.575 48.5747 134.712 47.485 134.712 46.2428L137.052 46.9591C137.052 49.0396 136.678 50.8305 135.924 52.3394C135.17 53.8483 134.11 54.999 132.746 55.8068C131.382 56.6146 129.766 57.0185 127.915 57.0185L127.922 57.0262ZM135.124 56.4622V50.6857H134.728V34.865H138.309V56.4622H135.131H135.124Z" fill="#33393A"/>
<path d="M143.88 66.0644V34.865H147.058V50.7619H147.454V66.0644H143.873H143.88ZM153.818 57.0642C151.791 57.0642 150.083 56.5613 148.697 55.5553C147.31 54.5494 146.258 53.1853 145.549 51.463C144.833 49.7407 144.482 47.805 144.482 45.6407C144.482 43.4764 144.84 41.5255 145.549 39.8108C146.265 38.0962 147.317 36.7473 148.712 35.749C150.106 34.7583 151.813 34.2553 153.841 34.2553C155.868 34.2553 157.567 34.7507 159.007 35.749C160.455 36.7397 161.56 38.0962 162.338 39.8185C163.115 41.5408 163.496 43.4764 163.496 45.6407C163.496 47.805 163.107 49.7407 162.338 51.4706C161.568 53.2005 160.455 54.557 159.007 55.563C157.559 56.5613 155.83 57.0642 153.818 57.0642ZM153.376 53.8026C154.786 53.8026 155.967 53.4444 156.904 52.7204C157.841 52.0041 158.55 51.021 159.015 49.794C159.48 48.5595 159.716 47.1801 159.716 45.6483C159.716 44.1166 159.48 42.7525 159.015 41.5255C158.55 40.2986 157.841 39.3231 156.896 38.6068C155.951 37.8828 154.74 37.5246 153.277 37.5246C151.813 37.5246 150.716 37.8676 149.794 38.5534C148.872 39.2393 148.186 40.1995 147.736 41.4264C147.287 42.6534 147.058 44.0632 147.058 45.6483C147.058 47.2335 147.279 48.6281 147.729 49.855C148.178 51.082 148.864 52.0574 149.802 52.7509C150.731 53.452 151.928 53.8026 153.383 53.8026H153.376Z" fill="#33393A"/>
<path d="M167.878 66.0644V34.865H171.056V50.7619H171.452V66.0644H167.87H167.878ZM177.815 57.0642C175.788 57.0642 174.081 56.5613 172.694 55.5553C171.307 54.5494 170.255 53.1853 169.547 51.463C168.83 49.7407 168.48 47.805 168.48 45.6407C168.48 43.4764 168.838 41.5255 169.547 39.8108C170.263 38.0962 171.315 36.7473 172.709 35.749C174.104 34.7583 175.811 34.2553 177.838 34.2553C179.865 34.2553 181.565 34.7507 183.005 35.749C184.453 36.7397 185.558 38.0962 186.335 39.8185C187.113 41.5408 187.494 43.4764 187.494 45.6407C187.494 47.805 187.105 49.7407 186.335 51.4706C185.566 53.2005 184.453 54.557 183.005 55.563C181.557 56.5613 179.827 57.0642 177.815 57.0642ZM177.373 53.8026C178.783 53.8026 179.964 53.4444 180.902 52.7204C181.839 52.0041 182.548 51.021 183.013 49.794C183.477 48.5595 183.714 47.1801 183.714 45.6483C183.714 44.1166 183.477 42.7525 183.013 41.5255C182.548 40.2986 181.839 39.3231 180.894 38.6068C179.949 37.8828 178.737 37.5246 177.274 37.5246C175.811 37.5246 174.714 37.8676 173.791 38.5534C172.869 39.2393 172.183 40.1995 171.734 41.4264C171.284 42.6534 171.056 44.0632 171.056 45.6483C171.056 47.2335 171.277 48.6281 171.726 49.855C172.176 51.082 172.862 52.0574 173.799 52.7509C174.729 53.452 175.925 53.8026 177.381 53.8026H177.373Z" fill="#33393A"/>
<path d="M201.097 57.0642C198.948 57.0642 197.104 56.5765 195.549 55.6011C193.994 54.6256 192.798 53.2844 191.96 51.5697C191.121 49.855 190.702 47.8812 190.702 45.6407C190.702 43.4002 191.129 41.4036 191.982 39.6889C192.836 37.9742 194.04 36.6406 195.602 35.688C197.165 34.7354 198.994 34.2553 201.104 34.2553C203.215 34.2553 205.121 34.743 206.683 35.7185C208.245 36.694 209.442 38.0352 210.272 39.7346C211.103 41.4417 211.522 43.4078 211.522 45.6331C211.522 47.8584 211.103 49.8703 210.265 51.5849C209.426 53.2996 208.222 54.6408 206.668 55.6011C205.105 56.5689 203.254 57.049 201.104 57.049L201.097 57.0642ZM201.097 53.6882C203.322 53.6882 204.983 52.9414 206.088 51.4478C207.186 49.9541 207.742 48.0184 207.742 45.6483C207.742 43.2783 207.186 41.2817 206.081 39.8261C204.976 38.3705 203.315 37.6465 201.104 37.6465C199.596 37.6465 198.361 37.9895 197.386 38.6677C196.41 39.346 195.686 40.291 195.206 41.4874C194.726 42.6839 194.49 44.0709 194.49 45.6483C194.49 48.0718 195.046 50.0227 196.166 51.4859C197.286 52.949 198.933 53.6882 201.104 53.6882H201.097Z" fill="#33393A"/>
<path d="M215.911 56.4622V34.865H219.089V40.0852L218.571 39.4069C218.823 38.7439 219.158 38.1267 219.562 37.5703C219.966 37.014 220.423 36.5492 220.934 36.191C221.49 35.7414 222.13 35.3984 222.831 35.1622C223.54 34.9259 224.256 34.7888 224.988 34.743C225.719 34.6973 226.405 34.743 227.045 34.8726V38.2105C226.299 38.02 225.475 37.9742 224.584 38.0733C223.692 38.1648 222.862 38.4848 222.107 39.0335C221.414 39.5441 220.88 40.1462 220.499 40.8473C220.118 41.5484 219.859 42.3105 219.707 43.1259C219.562 43.9489 219.486 44.7796 219.486 45.6331V56.4698H215.904L215.911 56.4622Z" fill="#33393A"/>
<path d="M228.455 37.8066V34.865H242.912V37.8066H228.455ZM242.912 56.4622C241.632 56.7289 240.367 56.8356 239.124 56.7899C237.875 56.7442 236.762 56.4927 235.786 56.0278C234.803 55.5706 234.072 54.8466 233.576 53.8559C233.15 53.0024 232.921 52.1412 232.883 51.2649C232.852 50.3885 232.83 49.4054 232.83 48.2928V28.8522H236.389V48.1327C236.389 49.0091 236.396 49.7636 236.419 50.3885C236.442 51.0134 236.579 51.5545 236.831 52.0117C237.311 52.8652 238.073 53.3682 239.117 53.513C240.161 53.6578 241.426 53.6197 242.904 53.3911V56.447L242.912 56.4622Z" fill="#33393A"/>
<path d="M56.5689 0H9.88413C4.42528 0 0 4.42528 0 9.88413V56.5689C0 62.0278 4.42528 66.453 9.88413 66.453H56.5689C62.0278 66.453 66.453 62.0278 66.453 56.5689V9.88413C66.453 4.42528 62.0278 0 56.5689 0Z" fill="url(#paint0_linear_1_343)"/>
<path d="M53.6503 24.7141C52.3929 34.7049 43.4461 43.2021 33.2267 43.3621C22.4662 43.888 12.7497 35.5585 10.6387 25.0647C10.2806 23.4948 11.2789 21.9402 12.8564 21.6048C14.5253 21.239 16.179 22.4507 16.3315 24.1578C16.522 26.2078 17.0707 28.2349 17.9547 30.1401C24.318 43.4764 42.6536 43.6441 49.939 30.925C51.0745 28.9436 51.8671 26.7641 52.2786 24.5007C52.4386 23.6243 53.7646 23.8225 53.6503 24.7217V24.7141Z" fill="white"/>
<defs>
<linearGradient id="paint0_linear_1_343" x1="6.8282" y1="6.10423" x2="59.4724" y2="60.1888" gradientUnits="userSpaceOnUse">
<stop stop-color="#A597D9"/>
<stop offset="0.08" stop-color="#9F90DC"/>
<stop offset="0.69" stop-color="#775FF3"/>
<stop offset="1" stop-color="#684DFD"/>
</linearGradient>
</defs>
</svg>
