<svg width="40" height="40" viewBox="0 0 40 40" fill="none" xmlns="http://www.w3.org/2000/svg">
 <path d="M34.0505 0H5.94954C2.6637 0 0 2.6637 0 5.94954V34.0505C0 37.3363 2.6637 40 5.94954 40H34.0505C37.3363 40 40 37.3363 40 34.0505V5.94954C40 2.6637 37.3363 0 34.0505 0Z" fill="url(#paint0_linear_3610_45245)"/>
 <path d="M32.2931 14.8797C31.5362 20.8934 26.1509 26.0081 19.9995 26.1045C13.5225 26.421 7.67386 21.4072 6.40321 15.0907C6.18762 14.1457 6.78854 13.21 7.73808 13.0081C8.74266 12.7879 9.73808 13.5173 9.82982 14.5448C9.9445 15.7788 10.2748 16.9989 10.8069 18.1457C14.6372 26.1733 25.6739 26.2742 30.0592 18.6182C30.7427 17.4256 31.2197 16.1136 31.4674 14.7512C31.5638 14.2237 32.3619 14.343 32.2931 14.8843V14.8797Z" fill="white"/>
 <defs>
 <linearGradient id="paint0_linear_3610_45245" x1="4.11009" y1="3.67431" x2="35.7982" y2="36.2294" gradientUnits="userSpaceOnUse">
 <stop stop-color="#A597D9"/>
 <stop offset="0.08" stop-color="#9F90DC"/>
 <stop offset="0.69" stop-color="#775FF3"/>
 <stop offset="1" stop-color="#684DFD"/>
 </linearGradient>
 </defs>
 </svg>